<svg width="100%" viewBox="0 0 680 584" role="img" xmlns="http://www.w3.org/2000/svg">
<!-- Adaptive light/dark theme via prefers-color-scheme (see <style> below). -->
<title>Entity-relationship diagram of the Secret Santa records</title>
<desc>Five tables. families is the hub with one-to-many links to members, relationships, and exchange_events. exchange_events has a one-to-many link to assignments and a unique constraint on family_id plus year. assignments has a unique constraint on exchange_id plus giver_id, so each member draws at most once per exchange. The id columns from_id, to_id, giver_id and receiver_id hold member ids.</desc>
<style>
text{font-family:-apple-system,BlinkMacSystemFont,"Segoe UI",Roboto,Helvetica,Arial,sans-serif;}
/* light theme (default / fallback) */
.bg{fill:#ffffff;}
.t{font-size:14px;fill:#1f2937;}
.th{font-size:14px;font-weight:500;fill:#111827;}
.ts{font-size:12px;fill:#6b7280;}
.conn{stroke:#64748b;stroke-width:1.5;fill:none;}
.divider{stroke:#000000;stroke-opacity:0.18;}
.c-blue rect{fill:#dbeafe;stroke:#3b82f6;stroke-width:1.5;}
.c-blue text{fill:#1e3a8a;}
.c-amber rect{fill:#fef3c7;stroke:#f59e0b;stroke-width:1.5;}
.c-amber text{fill:#92400e;}
/* dark theme — applied automatically when the viewer prefers dark */
@media (prefers-color-scheme: dark){
.bg{fill:#0f172a;}
.t{fill:#e2e8f0;}
.th{fill:#f1f5f9;}
.ts{fill:#94a3b8;}
.conn{stroke:#94a3b8;}
.divider{stroke:#ffffff;stroke-opacity:0.25;}
.c-blue rect{fill:#1e3a8a;stroke:#60a5fa;}
.c-blue text{fill:#bfdbfe;}
.c-amber rect{fill:#7c2d12;stroke:#fbbf24;}
.c-amber text{fill:#fde68a;}
}
</style>
<defs>
<marker id="arrow" viewBox="0 0 10 10" refX="8" refY="5" markerWidth="6" markerHeight="6" orient="auto-start-reverse">
<path class="conn" d="M2 1L8 5L2 9" stroke-linecap="round" stroke-linejoin="round"/>
</marker>
</defs>

<rect class="bg" x="0" y="0" width="680" height="584"/>
<text class="th" x="340" y="38" text-anchor="middle">records (sqlite schema)</text>

<!-- connectors (drawn first; boxes cover the joins) -->
<line class="conn" x1="340" y1="124" x2="140" y2="180" marker-end="url(#arrow)"/>
<line class="conn" x1="340" y1="124" x2="340" y2="180" marker-end="url(#arrow)"/>
<line class="conn" x1="340" y1="124" x2="550" y2="180" marker-end="url(#arrow)"/>
<line class="conn" x1="550" y1="334" x2="550" y2="384" marker-end="url(#arrow)"/>

<!-- families -->
<g class="c-blue">
<rect x="255" y="50" width="170" height="74" rx="6"/>
<text class="th" x="265" y="70">families</text>
<line class="divider" x1="255" y1="78" x2="425" y2="78"/>
<text class="t" x="265" y="98">id · PK</text>
<text class="t" x="265" y="118">name</text>
</g>

<!-- members -->
<g class="c-blue">
<rect x="60" y="180" width="160" height="94" rx="6"/>
<text class="th" x="70" y="200">members</text>
<line class="divider" x1="60" y1="208" x2="220" y2="208"/>
<text class="t" x="70" y="228">id · PK</text>
<text class="t" x="70" y="248">family_id · FK</text>
<text class="t" x="70" y="268">name</text>
</g>

<!-- relationships -->
<g class="c-blue">
<rect x="255" y="180" width="170" height="134" rx="6"/>
<text class="th" x="265" y="200">relationships</text>
<line class="divider" x1="255" y1="208" x2="425" y2="208"/>
<text class="t" x="265" y="228">id · PK</text>
<text class="t" x="265" y="248">family_id · FK</text>
<text class="t" x="265" y="268">from_id · FK</text>
<text class="t" x="265" y="288">to_id · FK</text>
<text class="t" x="265" y="308">type</text>
</g>

<!-- exchange_events -->
<g class="c-amber">
<rect x="460" y="180" width="180" height="154" rx="6"/>
<text class="th" x="470" y="200">exchange_events</text>
<line class="divider" x1="460" y1="208" x2="640" y2="208"/>
<text class="t" x="470" y="228">id · PK</text>
<text class="t" x="470" y="248">family_id · FK</text>
<text class="t" x="470" y="268">year</text>
<text class="t" x="470" y="288">seed</text>
<text class="t" x="470" y="308">drawn_at</text>
<text class="ts" x="470" y="328">unique (family_id, year)</text>
</g>

<!-- assignments -->
<g class="c-amber">
<rect x="460" y="384" width="180" height="134" rx="6"/>
<text class="th" x="470" y="404">assignments</text>
<line class="divider" x1="460" y1="412" x2="640" y2="412"/>
<text class="t" x="470" y="432">id · PK</text>
<text class="t" x="470" y="452">exchange_id · FK</text>
<text class="t" x="470" y="472">giver_id · FK</text>
<text class="t" x="470" y="492">receiver_id · FK</text>
<text class="ts" x="470" y="512">unique (exchange_id, giver_id)</text>
</g>

<!-- cardinality labels -->
<text class="ts" x="330" y="140">1</text>
<text class="ts" x="146" y="174">N</text>
<text class="ts" x="346" y="174">N</text>
<text class="ts" x="540" y="174">N</text>
<text class="ts" x="556" y="352">1</text>
<text class="ts" x="556" y="378">N</text>

<!-- legend -->
<g class="c-blue"><rect x="60" y="540" width="14" height="14" rx="3"/></g>
<text class="t" x="82" y="551">reference data</text>
<g class="c-amber"><rect x="210" y="540" width="14" height="14" rx="3"/></g>
<text class="t" x="232" y="551">append-only log</text>
<text class="ts" x="60" y="572">PK primary key · FK foreign key · from_id / to_id / giver_id / receiver_id → members.id</text>
</svg>
